<svg width="28" height="36" viewBox="0 0 28 36" fill="none" xmlns="http://www.w3.org/2000/svg">
<path d="M20.0286 22.0008C20.7177 21.5297 21.6739 21.1219 21.6739 21.1219C21.6739 21.1219 18.9528 21.6141 16.2458 21.8391C12.9341 22.1133 9.37626 22.1695 7.59032 21.9305C3.36454 21.368 9.91063 19.8141 9.91063 19.8141C9.91063 19.8141 7.37235 19.6453 4.24344 21.15C0.552037 22.9359 13.3841 23.7516 20.0286 22.0008ZM14.0239 19.7437C12.688 16.7414 8.18094 14.1047 14.0239 9.49219C21.3125 3.74062 17.5747 0 17.5747 0C19.0864 5.94141 12.2591 7.74141 9.7911 11.4328C8.11063 13.957 10.6138 16.6641 14.0239 19.7437ZM22.0817 7.35469C22.0888 7.35469 9.76298 10.4344 15.6481 17.2125C17.3848 19.2094 15.1911 21.0094 15.1911 21.0094C15.1911 21.0094 19.5997 18.7312 17.5747 15.8836C15.6833 13.2258 14.2348 11.9039 22.0817 7.35469ZM21.6528 26.3742C21.6144 26.4412 21.5671 26.5027 21.5122 26.557C30.5333 24.1875 27.2145 18.1969 22.9044 19.7156C22.6716 19.8012 22.4704 19.9557 22.3278 20.1586C22.5795 20.0675 22.8382 19.997 23.1013 19.9477C25.2809 19.4906 28.4098 22.8656 21.6528 26.3742ZM24.9688 30.7547C24.9688 30.7547 25.9883 31.5914 23.8508 32.2453C19.7797 33.4758 6.91954 33.8484 3.34766 32.2945C2.06094 31.7391 4.47266 30.9586 5.23204 30.7969C6.01954 30.6281 6.47657 30.6562 6.47657 30.6562C5.04922 29.6508 -2.75546 32.632 2.51094 33.4828C16.8716 35.8172 28.6953 32.4352 24.9688 30.7547ZM9.24969 27.8438C3.7161 29.3906 12.6177 32.5828 19.663 29.5664C18.9759 29.2995 18.3126 28.9749 17.6802 28.5961C14.5372 29.1938 13.0817 29.2359 10.227 28.9125C7.87157 28.6453 9.24969 27.8438 9.24969 27.8438ZM21.8919 34.6781C16.3583 35.7188 9.53094 35.5992 5.48797 34.9312C5.48797 34.9242 6.31766 35.6133 10.5786 35.8875C17.0614 36.3023 27.0177 35.6555 27.2497 32.5898C27.2497 32.5898 26.7997 33.75 21.8919 34.6781ZM18.8263 24.8203C14.6638 25.6219 12.252 25.6008 9.20751 25.2844C6.85204 25.0383 8.39188 23.8992 8.39188 23.8992C2.28876 25.9242 11.7809 28.2164 20.3098 25.7203C19.7586 25.5257 19.2535 25.2193 18.8263 24.8203Z" fill="black"/>
</svg>
