<svg width="32" height="32" viewBox="0 0 32 32" fill="none" xmlns="http://www.w3.org/2000/svg">
<path d="M28.375 0.25H3.625C1.76172 0.25 0.25 1.76172 0.25 3.625V28.375C0.25 30.2383 1.76172 31.75 3.625 31.75H28.375C30.2383 31.75 31.75 30.2383 31.75 28.375V3.625C31.75 1.76172 30.2383 0.25 28.375 0.25ZM17.3922 24.8172C17.3922 27.8828 15.5922 29.282 12.9695 29.282C10.6 29.282 9.22891 28.0586 8.52578 26.575L10.9375 25.1195C11.4016 25.9422 11.8234 26.6383 12.843 26.6383C13.8133 26.6383 14.432 26.2586 14.432 24.775V14.7133H17.3922V24.8172ZM24.3953 29.282C21.6461 29.282 19.8672 27.9742 19.0023 26.2586L21.4141 24.8664C22.0469 25.9 22.8766 26.6664 24.332 26.6664C25.5555 26.6664 26.343 26.0547 26.343 25.2039C26.343 24.1914 25.5414 23.8328 24.1844 23.2352L23.4461 22.9187C21.3086 22.0117 19.8953 20.8656 19.8953 18.4539C19.8953 16.232 21.5898 14.5445 24.2266 14.5445C26.1109 14.5445 27.4609 15.1984 28.4312 16.9141L26.125 18.3906C25.6187 17.4836 25.0703 17.125 24.2195 17.125C23.3547 17.125 22.8062 17.6734 22.8062 18.3906C22.8062 19.2766 23.3547 19.6352 24.6273 20.1906L25.3656 20.507C27.8828 21.5828 29.2961 22.6867 29.2961 25.1617C29.2961 27.8195 27.2008 29.282 24.3953 29.282Z" fill="#e76c89"/>
</svg>
