<svg width="36" height="32" viewBox="0 0 36 32" fill="none" xmlns="http://www.w3.org/2000/svg">
<path d="M29.4047 10.4593C29.025 10.3328 28.6453 10.2133 28.2656 10.1008C28.3289 9.8406 28.3852 9.58044 28.4414 9.32029C29.3062 5.12966 28.7367 1.76169 26.8172 0.650757C24.968 -0.410962 21.9516 0.692944 18.9 3.35076C18.5977 3.61091 18.3023 3.88513 18.0211 4.15935C17.8312 3.97654 17.6344 3.79373 17.4375 3.61794C14.2383 0.777319 11.032 -0.417993 9.1125 0.699975C7.27031 1.76873 6.72187 4.93982 7.49531 8.90544C7.57266 9.29919 7.65703 9.68591 7.75547 10.0797C7.30547 10.2062 6.8625 10.3468 6.44766 10.4945C2.69297 11.7953 0 13.8484 0 15.9719C0 18.1656 2.86875 20.3664 6.77109 21.7023C7.0875 21.8078 7.40391 21.9133 7.72734 22.0047C7.62188 22.4265 7.53047 22.8414 7.44609 23.2703C6.70781 27.1726 7.28438 30.2664 9.12656 31.3281C11.025 32.425 14.2172 31.3 17.325 28.5789C17.5711 28.3609 17.8172 28.1359 18.0633 27.8969C18.3727 28.1992 18.6961 28.4875 19.0195 28.7687C22.0289 31.3562 25.0031 32.4039 26.8383 31.3422C28.7367 30.2453 29.3555 26.9195 28.5539 22.8695C28.4906 22.5601 28.4203 22.2437 28.343 21.9203C28.568 21.857 28.7859 21.7867 29.0039 21.7164C33.0609 20.3734 36 18.2008 36 15.9719C36 13.8414 33.2297 11.7742 29.4047 10.4593ZM19.8914 4.48982C22.507 2.21169 24.9469 1.31873 26.0578 1.95857C27.2461 2.6406 27.7031 5.39685 26.9578 9.01794C26.9086 9.25701 26.8594 9.48904 26.7961 9.72107C25.2352 9.36951 23.6531 9.11638 22.0641 8.97576C21.15 7.66794 20.1516 6.41638 19.0688 5.24216C19.343 4.98201 19.6102 4.73591 19.8914 4.48982ZM11.7562 19.6211C12.1148 20.2328 12.4805 20.8445 12.8672 21.4422C11.7703 21.3226 10.6805 21.1468 9.60469 20.9148C9.91406 19.9023 10.3008 18.8547 10.7508 17.7859C11.0742 18.4047 11.4047 19.0164 11.7562 19.6211ZM9.62578 11.1625C10.6383 10.9375 11.7141 10.7547 12.832 10.614C12.4594 11.1976 12.0938 11.7953 11.7492 12.4C11.4047 12.9976 11.0672 13.6094 10.7508 14.2281C10.3078 13.1804 9.93516 12.1539 9.62578 11.1625ZM11.5523 16.007C12.0164 15.0367 12.5227 14.0875 13.057 13.1523C13.5914 12.2172 14.168 11.3101 14.7727 10.4172C15.8273 10.3398 16.9031 10.2976 18 10.2976C19.0969 10.2976 20.1797 10.3398 21.2273 10.4172C21.825 11.3031 22.3945 12.2101 22.9359 13.1383C23.4773 14.0664 23.9836 15.0156 24.4617 15.9789C23.9906 16.9492 23.4844 17.9054 22.943 18.8476C22.4086 19.7828 21.8391 20.6898 21.2414 21.5898C20.1938 21.6672 19.1039 21.7023 18 21.7023C16.8961 21.7023 15.8273 21.6672 14.7937 21.6039C14.182 20.7109 13.6055 19.7969 13.0641 18.8617C12.5227 17.9265 12.0234 16.9773 11.5523 16.007ZM24.2508 19.607C24.6094 18.9883 24.9469 18.3625 25.2773 17.7297C25.7273 18.7492 26.1211 19.7828 26.4656 20.8445C25.3758 21.0906 24.2719 21.2804 23.1609 21.407C23.5406 20.8164 23.8992 20.2117 24.2508 19.607ZM25.2633 14.2281C24.9328 13.6094 24.5953 12.9906 24.2437 12.3859C23.8992 11.7883 23.5406 11.1976 23.168 10.614C24.3 10.7547 25.3828 10.9445 26.3953 11.1765C26.0719 12.2172 25.6922 13.2297 25.2633 14.2281ZM18.0141 6.31794C18.7523 7.11951 19.4484 7.96326 20.0953 8.83513C18.7031 8.77185 17.3039 8.77185 15.9117 8.83513C16.6008 7.9281 17.3109 7.08435 18.0141 6.31794ZM9.85781 2.00779C11.0391 1.31873 13.6617 2.3031 16.425 4.74998C16.6008 4.90466 16.7766 5.07341 16.9594 5.24216C15.8695 6.41638 14.8641 7.66794 13.943 8.97576C12.3539 9.11638 10.7789 9.36247 9.21797 9.70701C9.12656 9.34841 9.04922 8.98279 8.97188 8.61716C8.31094 5.21404 8.74687 2.64763 9.85781 2.00779ZM8.13516 20.5422C7.83984 20.4578 7.55156 20.3664 7.26328 20.2679C5.76563 19.7969 4.06406 19.0515 2.83359 18.0742C2.12344 17.582 1.64531 16.8226 1.51172 15.9719C1.51172 14.6851 3.73359 13.0398 6.93984 11.9219C7.34062 11.7812 7.74844 11.6547 8.15625 11.5351C8.63437 13.0609 9.21094 14.5586 9.87891 16.007C9.20391 17.4765 8.62031 18.9953 8.13516 20.5422ZM16.3336 27.4328C15.1734 28.4945 13.8305 29.3383 12.368 29.9148C11.5875 30.2875 10.6875 30.3226 9.88594 30.0062C8.76797 29.3594 8.30391 26.8773 8.93672 23.5375C9.01406 23.1437 9.09844 22.75 9.19688 22.3633C10.7719 22.7008 12.3609 22.9328 13.9711 23.0523C14.8992 24.3672 15.9187 25.6258 17.0086 26.807C16.7836 27.025 16.5586 27.2359 16.3336 27.4328ZM18.0562 25.7242C17.3391 24.9508 16.6219 24.0929 15.9258 23.1719C16.6008 23.2 17.2969 23.214 18 23.214C18.7242 23.214 19.4344 23.2 20.1375 23.1648C19.4906 24.0578 18.7945 24.9086 18.0562 25.7242ZM27.2461 27.8336C27.1828 28.6914 26.7609 29.4929 26.0859 30.0343C24.968 30.6812 22.5844 29.8375 20.0109 27.6297C19.7156 27.3765 19.4203 27.1023 19.118 26.8211C20.1938 25.6328 21.1852 24.3742 22.0852 23.0523C23.6953 22.9187 25.2984 22.6726 26.8805 22.314C26.9508 22.6023 27.0141 22.8906 27.0703 23.1719C27.4148 24.6906 27.4711 26.2726 27.2461 27.8336ZM28.5258 20.275C28.3289 20.3383 28.132 20.4015 27.9281 20.4578C27.4359 18.925 26.8313 17.4273 26.1352 15.9719C26.8102 14.5375 27.3797 13.0609 27.8578 11.5492C28.2234 11.6547 28.575 11.7672 28.9125 11.8797C32.1891 13.0047 34.4883 14.6781 34.4883 15.9578C34.4883 17.3359 32.0344 19.1148 28.5258 20.275ZM18 19.2203C19.7789 19.2203 21.2203 17.7789 21.2203 16C21.2203 14.2211 19.7789 12.7797 18 12.7797C16.2211 12.7797 14.7797 14.2211 14.7797 16C14.7797 17.7789 16.2211 19.2203 18 19.2203Z" fill="#e76c89"/>
</svg>
